<?xml version="1.0" encoding="UTF-8"?>
<!-- Created with Inkscape (http://www.inkscape.org/) -->
<svg width="94.819mm" height="16mm" version="1.1" viewBox="0 0 94.819 16" xmlns="http://www.w3.org/2000/svg" xmlns:cc="http://creativecommons.org/ns#" xmlns:dc="http://purl.org/dc/elements/1.1/" xmlns:rdf="http://www.w3.org/1999/02/22-rdf-syntax-ns#">
 <metadata>
  <rdf:RDF>
   <cc:Work rdf:about="">
    <dc:format>image/svg+xml</dc:format>
    <dc:type rdf:resource="http://purl.org/dc/dcmitype/StillImage"/>
    <dc:title/>
   </cc:Work>
  </rdf:RDF>
 </metadata>
 <g transform="translate(-46.231 -70.505)" fill="#fff">
  <path d="m48.402 70.505c-1.2025 0-2.1706 0.96808-2.1706 2.1706v11.659c0 1.2025 0.96808 2.1706 2.1706 2.1706h11.659c1.2025 0 2.1706-0.96809 2.1706-2.1706v-11.659c0-1.2025-0.96808-2.1706-2.1706-2.1706zm5.9509 2.0871h2.7487l-4.7309 4.3611v4.5232h-1.8631v-5.3396-2.5913h1.8631v0.87386zm3.6027 0.50819v2.8678 3.4017c-0.78108 0.66573-1.5024 1.2722-2.2832 1.9186l0.01436-2.4371 0.93626-0.80364v-1.371l-1.5036 1.4564v6.2852h-1.8631v-7.023l1.8631-1.716v0.0113z" color="#000000"/>
  <path d="m73.023 70.505c-0.60326 0-1.1442 0.15421-1.6229 0.46228-0.47212 0.30803-0.84261 0.74097-1.1115 1.2983-0.2623 0.55737-0.39343 1.1967-0.39343 1.918 0 0.74097 0.12786 1.3803 0.3836 1.918 0.2623 0.53113 0.62622 0.93766 1.0918 1.2196 0.47212 0.28195 1.0196 0.42297 1.6426 0.42297 0.60326 0 1.141-0.15421 1.6131-0.46231 0.47868-0.30804 0.84916-0.74094 1.1114-1.2983 0.26884-0.55737 0.40328-1.1967 0.40328-1.918 0-0.74097-0.13115-1.377-0.39344-1.9082-0.25572-0.53767-0.61966-0.94749-1.0918-1.2295-0.46557-0.28195-1.0098-0.42293-1.6328-0.42293zm39.632 0c-0.60327 0-1.1442 0.15421-1.6229 0.46228-0.47213 0.30803-0.84262 0.74097-1.1115 1.2983-0.2623 0.55737-0.39343 1.1967-0.39343 1.918 0 0.74097 0.12786 1.3803 0.38359 1.918 0.2623 0.53113 0.62621 0.93766 1.0918 1.2196 0.47211 0.28195 1.0196 0.42297 1.6426 0.42297 0.60327 0 1.141-0.15421 1.6131-0.46231 0.47868-0.30804 0.84917-0.74094 1.1115-1.2983 0.26883-0.55737 0.40327-1.1967 0.40327-1.918 0-0.74097-0.13115-1.377-0.39345-1.9082-0.25572-0.53767-0.61964-0.94749-1.0918-1.2295-0.46556-0.28195-1.0098-0.42293-1.6328-0.42293zm7.281 0c-0.60327 0-1.1442 0.15421-1.6229 0.46228-0.47213 0.30803-0.8426 0.74097-1.1114 1.2983-0.26229 0.55737-0.39343 1.1967-0.39343 1.918 0 0.74097 0.12786 1.3803 0.38359 1.918 0.2623 0.53113 0.62622 0.93766 1.0918 1.2196 0.47213 0.28195 1.0197 0.42297 1.6426 0.42297 0.60325 0 1.1409-0.15421 1.613-0.46231 0.47869-0.30804 0.84918-0.74094 1.1115-1.2983 0.26883-0.55737 0.40326-1.1967 0.40326-1.918 0-0.74097-0.13115-1.377-0.39343-1.9082-0.25573-0.53767-0.61966-0.94749-1.0918-1.2295-0.46557-0.28195-1.0098-0.42293-1.6328-0.42293zm-56.526 0.13758v0.19691c0.23607 0.0113 0.40655 0.0393 0.51147 0.0786 0.11146 0.0393 0.18686 0.11489 0.2262 0.22639 0.03934 0.1115 0.05904 0.29178 0.05904 0.54096v4.8786c0 0.24907-0.01965 0.42951-0.05904 0.54096-0.03934 0.1115-0.11475 0.18709-0.2262 0.2264-0.10492 0.0393-0.27542 0.0654-0.51147 0.0786v0.19654c0.27541-0.0189 0.69507-0.0302 1.259-0.0302 0.53114 0 0.94752 0.0113 1.2492 0.0302v-0.19654c-0.23607-0.0113-0.40983-0.0393-0.5213-0.0786-0.10492-0.0393-0.17703-0.1149-0.21638-0.2264-0.03935-0.11149-0.059-0.29178-0.059-0.54096v-2.2622h0.93441c0.24918 0 0.44262 0.0556 0.58032 0.16706 0.13769 0.1115 0.23932 0.2589 0.3049 0.44262 0.07215 0.18368 0.14755 0.44587 0.22624 0.78686l0.21638 0.98358c0.08527 0.39341 0.21309 0.66883 0.3836 0.82621 0.17703 0.15723 0.39999 0.23622 0.66884 0.23622 0.24918 0 0.44917-0.0491 0.59999-0.1474 0.1508-0.0983 0.30164-0.2589 0.45245-0.48197l-0.14755-0.10809c-0.09834 0.13115-0.1869 0.22601-0.26555 0.28535-0.07215 0.059-0.16392 0.0884-0.27541 0.0884-0.12457 0-0.22296-0.059-0.29507-0.17688-0.07211-0.11792-0.14098-0.32768-0.20655-0.62948l-0.2459-1.0032c-0.09181-0.4131-0.23607-0.71474-0.43277-0.90489-0.19672-0.19011-0.51146-0.32126-0.94425-0.39345l-0.11804-0.0189c0.45901-0.0722 0.8295-0.20976 1.1115-0.4131 0.28853-0.20976 0.49179-0.44258 0.60982-0.69834 0.12457-0.2623 0.1869-0.52127 0.1869-0.77704 0-0.5049-0.20655-0.91472-0.61966-1.2295-0.40654-0.32126-0.99014-0.48192-1.7508-0.48192-0.15738 0-0.29836 3e-3 -0.42294 0.0113l-1.0623 0.0113c-0.52458 0-0.92457-0.0113-1.2-0.0302zm13.582 0v0.19691c0.23607 0.0113 0.40655 0.0393 0.51146 0.0786 0.11146 0.0393 0.1869 0.11489 0.2262 0.22639 0.03934 0.1115 0.05904 0.29178 0.05904 0.54096v4.8786c0 0.24907-0.01966 0.42951-0.05904 0.54096-0.03935 0.1115-0.11475 0.18709-0.2262 0.2264-0.10492 0.0393-0.27541 0.0654-0.51146 0.0786v0.19654c0.27542-0.0189 0.68195-0.0302 1.2196-0.0302 0.40655 0 0.81965 8e-3 1.2393 0.0189 0.12457 8e-3 0.27541 0.0113 0.45245 0.0113 0.48524 0 0.90489-0.0786 1.259-0.23623 0.3541-0.16403 0.62622-0.39016 0.81638-0.67868 0.19015-0.28838 0.28524-0.61966 0.28524-0.99342 0-0.4459-0.15409-0.8262-0.46229-1.141-0.30818-0.32126-0.82294-0.53114-1.5442-0.62952v-0.0189c0.51802-0.15723 0.89506-0.38688 1.1311-0.68852 0.24261-0.30161 0.36393-0.6426 0.36393-1.0229 0-0.46556-0.18032-0.83932-0.54098-1.1213-0.3541-0.28196-0.86555-0.42297-1.5344-0.42297-0.15738 0-0.29835 3e-3 -0.42294 0.0113l-1.0623 0.0113c-0.52458 0-0.92457-0.0113-1.2-0.0302zm6.0515 0v0.19691c0.23607 0.0113 0.40655 0.0393 0.51147 0.0786 0.11146 0.0393 0.18686 0.11489 0.22624 0.22639 0.03935 0.1115 0.059 0.29178 0.059 0.54096v4.8786c0 0.24907-0.01966 0.42951-0.059 0.54096-0.03934 0.1115-0.11474 0.18709-0.22624 0.2264-0.10492 0.0393-0.27541 0.0654-0.51147 0.0786v0.19654c0.64261-0.0189 1.5934-0.0302 2.8524-0.0302 1.0557 0 1.8065 0.0113 2.2524 0.0302-0.04588-0.46556-0.06886-0.88521-0.06886-1.259 0-0.29518 0.0098-0.53114 0.02948-0.70821h-0.22624c-0.04592 0.46556-0.11803 0.81967-0.21638 1.0623-0.09838 0.23622-0.25576 0.40985-0.47213 0.52131-0.20984 0.10507-0.51802 0.15723-0.92457 0.15723h-0.71801c-0.23607 0-0.40983-0.0151-0.5213-0.0491-0.10492-0.0393-0.17704-0.1149-0.21638-0.2264-0.03934-0.11149-0.05904-0.29178-0.05904-0.54096v-2.3606h0.64917c0.2623 0 0.46557 0.0688 0.60983 0.20674 0.1508 0.13758 0.24261 0.34432 0.27538 0.61969 0.03288 0.26873 0.05246 0.42622 0.05904 0.47211h0.22621c-0.03935-0.59672-0.059-1.0623-0.059-1.3967v-0.47214c0-0.34091 0.0098-0.64913 0.02948-0.92455h-0.22624l-0.02948 0.19654c-0.02609 0.22299-0.06229 0.40985-0.10821 0.56065-0.03934 0.14438-0.12128 0.27213-0.2459 0.38362-0.12461 0.1047-0.30164 0.15723-0.53114 0.15723h-0.64917v-2.3212c0-0.24907 0.01966-0.42951 0.05904-0.54097 0.03934-0.11149 0.11146-0.18368 0.21638-0.21656 0.11146-0.0393 0.28524-0.059 0.5213-0.059h0.81638c0.34753 0 0.60653 0.0491 0.77702 0.1474 0.1705 0.0918 0.29182 0.24264 0.36393 0.45248 0.07215 0.20334 0.13115 0.51803 0.17707 0.94424h0.2262c-0.01966-0.1508-0.02948-0.35414-0.02948-0.60982 0-0.34092 0.02305-0.72787 0.06886-1.1607-0.40656 0.0189-1.0918 0.0302-2.0557 0.0302-1.259 0-2.2098-0.0113-2.8524-0.0302zm5.9937 0v0.19691c0.23607 0.0113 0.40655 0.0393 0.51147 0.0786 0.11146 0.0393 0.18686 0.11489 0.22624 0.22639 0.03935 0.1115 0.059 0.29178 0.059 0.54096v4.8786c0 0.24907-0.01966 0.42951-0.059 0.54096-0.03934 0.1115-0.11475 0.18709-0.22624 0.2264-0.10492 0.0393-0.27541 0.0654-0.51147 0.0786v0.19654c0.27542-0.0189 0.69507-0.0302 1.259-0.0302 0.53113 0 0.94751 0.0113 1.2491 0.0302v-0.19654c-0.23607-0.0113-0.40983-0.0393-0.5213-0.0786-0.10492-0.0393-0.17703-0.1149-0.21642-0.2264-0.03934-0.11149-0.059-0.29178-0.059-0.54096v-2.2622h0.93441c0.24918 0 0.44261 0.0556 0.5803 0.16706 0.13769 0.1115 0.23936 0.2589 0.30489 0.44262 0.07212 0.18368 0.14755 0.44587 0.22624 0.78686l0.21638 0.98358c0.08523 0.39341 0.21313 0.66883 0.3836 0.82621 0.17704 0.15723 0.4 0.23622 0.66884 0.23622 0.24918 0 0.44917-0.0491 0.59999-0.1474 0.1508-0.0983 0.30165-0.2589 0.45244-0.48197l-0.14752-0.10809c-0.09834 0.13115-0.1869 0.22601-0.26559 0.28535-0.07212 0.059-0.16392 0.0884-0.27542 0.0884-0.12461 0-0.22295-0.059-0.29507-0.17688-0.07215-0.11792-0.14098-0.32768-0.20655-0.62948l-0.2459-1.0032c-0.09181-0.4131-0.23607-0.71474-0.43279-0.90489-0.19672-0.19011-0.51146-0.32126-0.94425-0.39345l-0.118-0.0189c0.459-0.0722 0.82947-0.20976 1.1114-0.4131 0.28853-0.20976 0.4918-0.44258 0.60982-0.69834 0.12457-0.2623 0.1869-0.52127 0.1869-0.77704 0-0.5049-0.20655-0.91472-0.61967-1.2295-0.40654-0.32126-0.99014-0.48192-1.7508-0.48192-0.15738 0-0.29836 3e-3 -0.42295 0.0113l-1.0623 0.0113c-0.52458 0-0.92456-0.0113-1.2-0.0302zm6.1732 0c0.04592 0.46556 0.06886 0.88524 0.06886 1.259 0 0.32768-0.0098 0.59671-0.02948 0.80655h0.22624c0.05246-0.50491 0.11804-0.87867 0.19673-1.1213 0.07869-0.24907 0.21638-0.42947 0.4131-0.54097 0.19672-0.11792 0.49835-0.17688 0.9049-0.17688h0.53114v5.5966c0 0.27552-0.02609 0.47542-0.07869 0.6-0.05246 0.12472-0.14426 0.20976-0.27542 0.25587-0.13115 0.0457-0.34424 0.0756-0.63933 0.0884v0.19654c0.31476-0.0189 0.79998-0.0302 1.4557-0.0302 0.62294 0 1.1049 0.0113 1.4459 0.0302v-0.19654c-0.29506-0.0113-0.50819-0.0427-0.63932-0.0884-0.13115-0.0457-0.22295-0.13115-0.27542-0.25587-0.05246-0.12473-0.07869-0.32467-0.07869-0.6v-5.5966h0.53114c0.40655 0 0.70817 0.059 0.9049 0.17688 0.19668 0.1115 0.33441 0.29178 0.4131 0.54097 0.0787 0.24264 0.14423 0.6164 0.19669 1.1213h0.22624c-0.0197-0.20977-0.0295-0.47868-0.0295-0.80655 0-0.3738 0.023-0.79344 0.0689-1.259-0.54425 0.0189-1.4656 0.0302-2.7639 0.0302-1.3049 0-2.2295-0.0113-2.7737-0.0302zm8.446 0v0.19691c0.23607 0.0113 0.40656 0.0393 0.51148 0.0786 0.11146 0.0393 0.18686 0.11489 0.22621 0.22639 0.0393 0.1115 0.059 0.29178 0.059 0.54096v4.8786c0 0.24907-0.0197 0.42951-0.059 0.54096-0.0393 0.1115-0.11475 0.18709-0.22621 0.2264-0.10492 0.0393-0.27541 0.0654-0.51148 0.0786v0.19654c0.27541-0.0189 0.69507-0.0302 1.259-0.0302 0.62293 0 1.1049 0.0113 1.4459 0.0302v-0.19654c-0.29507-0.0113-0.5082-0.0393-0.63934-0.0786-0.13115-0.0393-0.22295-0.1149-0.27541-0.2264-0.0525-0.11149-0.0787-0.29178-0.0787-0.54096v-1.7704h0.75735c0.63605 0 1.1442-0.1115 1.5246-0.33449 0.38688-0.22299 0.65901-0.49833 0.81638-0.82621 0.16392-0.33448 0.2459-0.68194 0.2459-1.0426 0-0.59017-0.2033-1.059-0.60983-1.4065-0.40655-0.35414-0.99343-0.53114-1.7606-0.53114-0.15738 0-0.29836 3e-3 -0.42293 0.0113l-1.0623 0.0113c-0.52458 0-0.92457-0.0113-1.2-0.0302zm20.248 0v0.19691c0.23607 0.0113 0.40653 0.0393 0.51144 0.0786 0.1115 0.0393 0.1869 0.11489 0.22625 0.22639 0.0393 0.1115 0.059 0.29178 0.059 0.54096v4.8786c0 0.24907-0.0197 0.42951-0.059 0.54096-0.0393 0.1115-0.11475 0.18709-0.22625 0.2264-0.10491 0.0393-0.27537 0.0654-0.51144 0.0786v0.19654c0.64261-0.0189 1.5934-0.0302 2.8524-0.0302 1.0557 0 1.8065 0.0113 2.2524 0.0302-0.0459-0.46556-0.0689-0.88521-0.0689-1.259 0-0.33449 0.01-0.60329 0.0295-0.80655h-0.22624c-0.0459 0.48525-0.11804 0.85572-0.21638 1.1114-0.0984 0.25588-0.25573 0.44262-0.47211 0.56066-0.20984 0.11149-0.51804 0.16705-0.92457 0.16705h-0.718c-0.23603 0-0.4098-0.0151-0.52129-0.0491-0.10491-0.0393-0.17703-0.1149-0.21637-0.2264-0.0393-0.11149-0.059-0.29178-0.059-0.54096v-4.8786c0-0.24907 0.0197-0.4295 0.059-0.54096 0.0393-0.1115 0.11146-0.18709 0.21637-0.22639 0.1115-0.0393 0.28525-0.0654 0.52129-0.0786v-0.19691c-0.30818 0.0189-0.72457 0.0302-1.2491 0.0302-0.56392 0-0.98358-0.0113-1.259-0.0302zm5.7822 0v0.19691c0.23607 0.0113 0.40654 0.0393 0.51146 0.0786 0.11149 0.0393 0.1869 0.11489 0.2262 0.22639s0.059 0.29178 0.059 0.54096v4.8786c0 0.24907-0.0197 0.42951-0.059 0.54096-0.0393 0.1115-0.11474 0.18709-0.2262 0.2264-0.10492 0.0393-0.27541 0.0654-0.51146 0.0786v0.19654c0.64261-0.0189 1.5934-0.0302 2.8524-0.0302 1.0557 0 1.8065 0.0113 2.2524 0.0302-0.0459-0.46556-0.0689-0.88521-0.0689-1.259 0-0.29518 0.01-0.53114 0.0295-0.70821h-0.2262c-0.0459 0.46556-0.11803 0.81967-0.21638 1.0623-0.0984 0.23622-0.25572 0.40985-0.47212 0.52131-0.20983 0.10507-0.51802 0.15723-0.92457 0.15723h-0.71802c-0.23607 0-0.40982-0.0151-0.5213-0.0491-0.10492-0.0393-0.17703-0.1149-0.21638-0.2264-0.0393-0.11149-0.059-0.29178-0.059-0.54096v-2.3606h0.64915c0.2623 0 0.46557 0.0688 0.60983 0.20674 0.15081 0.13758 0.24261 0.34432 0.27542 0.61969 0.0329 0.26873 0.0525 0.42622 0.059 0.47211h0.22624c-0.0394-0.59672-0.059-1.0623-0.059-1.3967v-0.47214c0-0.34091 0.01-0.64913 0.0295-0.92455h-0.22624l-0.0295 0.19654c-0.0261 0.22299-0.0623 0.40985-0.10821 0.56065-0.0393 0.14438-0.12133 0.27213-0.2459 0.38362-0.12461 0.1047-0.30164 0.15723-0.53115 0.15723h-0.64915v-2.3212c0-0.24907 0.0197-0.42951 0.059-0.54097 0.0393-0.11149 0.11146-0.18368 0.21638-0.21656 0.11149-0.0393 0.28524-0.059 0.52129-0.059h0.81636c0.34753 0 0.60655 0.0491 0.77705 0.1474 0.17049 0.0918 0.29178 0.24264 0.36393 0.45248 0.0721 0.20334 0.13115 0.51803 0.17703 0.94424h0.22624c-0.0197-0.1508-0.0295-0.35414-0.0295-0.60982 0-0.34092 0.0231-0.72787 0.0689-1.1607-0.40654 0.0189-1.0918 0.0302-2.0557 0.0302-1.259 0-2.2098-0.0113-2.8524-0.0302zm5.5511 0v0.20674c0.0853 0 0.17049 0.0393 0.25572 0.11792 0.0918 0.0722 0.19673 0.21657 0.31476 0.43279l1.9967 3.6884v1.4754c0 0.24907-0.0197 0.42951-0.059 0.54097-0.0393 0.11149-0.11474 0.18708-0.2262 0.22639-0.10492 0.0393-0.27541 0.0654-0.51148 0.0786v0.19654c0.27541-0.0189 0.69506-0.0302 1.259-0.0302 0.53113 0 0.94752 0.0113 1.2492 0.0302v-0.19654c-0.23606-0.0113-0.40982-0.0393-0.52129-0.0786-0.10492-0.0393-0.17703-0.1149-0.21641-0.22639-0.0393-0.1115-0.059-0.29178-0.059-0.54097v-1.7901l1.5442-3.059c0.14426-0.28196 0.27866-0.48851 0.40326-0.61966 0.12461-0.13757 0.25247-0.22299 0.3836-0.25587v-0.19692c-0.19672 0.0189-0.44263 0.0302-0.73769 0.0302-0.38032 0-0.75737-0.0113-1.1311-0.0302v0.19692c0.28853 8e-3 0.5049 0.0491 0.64916 0.12775 0.14427 0.0786 0.21642 0.20976 0.21642 0.39344 0 0.21657-0.0886 0.49834-0.26559 0.8459l-1.259 2.4983-1.6328-3.1376c-0.0656-0.13115-0.0983-0.24605-0.0983-0.34432 0-0.24907 0.2295-0.37379 0.68852-0.37379v-0.20674c-0.28195 0.0189-0.74098 0.0302-1.377 0.0302-0.3213 0-0.60982-0.0113-0.86556-0.0302zm-62.253 0.0393c0.40655 0 0.77376 0.14097 1.1016 0.42296 0.32787 0.28196 0.58687 0.68194 0.77703 1.2 0.19672 0.51802 0.29507 1.118 0.29507 1.8 0 0.6754-0.08852 1.2754-0.26555 1.8-0.17049 0.52456-0.41638 0.93441-0.73769 1.2295-0.31476 0.28838-0.68195 0.43276-1.1016 0.43276-0.40655 0-0.77376-0.14098-1.1016-0.42293-0.32787-0.28196-0.59015-0.68194-0.78686-1.2-0.19015-0.51802-0.28524-1.118-0.28524-1.8 0-0.6754 0.08527-1.2754 0.25572-1.8 0.17703-0.5246 0.42294-0.93112 0.73769-1.2196 0.3213-0.29518 0.69178-0.44262 1.1114-0.44262zm39.632 0c0.40655 0 0.77375 0.14097 1.1016 0.42296 0.32787 0.28196 0.58686 0.68194 0.77702 1.2 0.19673 0.51802 0.29507 1.118 0.29507 1.8 0 0.6754-0.0885 1.2754-0.26559 1.8-0.17045 0.52456-0.41637 0.93441-0.73767 1.2295-0.31476 0.28838-0.68196 0.43276-1.1016 0.43276-0.40656 0-0.77375-0.14098-1.1016-0.42293-0.32784-0.28196-0.59015-0.68194-0.78688-1.2-0.19015-0.51802-0.28525-1.118-0.28525-1.8 0-0.6754 0.0852-1.2754 0.25573-1.8 0.17703-0.5246 0.42295-0.93112 0.73769-1.2196 0.32129-0.29518 0.69177-0.44262 1.1114-0.44262zm7.281 0c0.40655 0 0.77376 0.14097 1.1016 0.42296 0.32784 0.28196 0.58686 0.68194 0.77703 1.2 0.19672 0.51802 0.29506 1.118 0.29506 1.8 0 0.6754-0.0885 1.2754-0.26555 1.8-0.17049 0.52456-0.41638 0.93441-0.73768 1.2295-0.31476 0.28838-0.68195 0.43276-1.1016 0.43276-0.40655 0-0.77376-0.14098-1.1016-0.42293-0.32788-0.28196-0.59016-0.68194-0.78687-1.2-0.19015-0.51802-0.28524-1.118-0.28524-1.8 0-0.6754 0.0852-1.2754 0.25572-1.8 0.17703-0.5246 0.42295-0.93112 0.7377-1.2196 0.32129-0.29518 0.69178-0.44262 1.1114-0.44262zm-54.048 0.15722c0.57704 0 0.99342 0.13758 1.2492 0.41311 0.25572 0.27552 0.3836 0.68194 0.3836 1.2196 0 0.51145-0.12132 0.91147-0.36393 1.2-0.24261 0.28838-0.6885 0.4328-1.3377 0.4328h-0.65901v-2.4196c0-0.23622 0.01965-0.4131 0.059-0.53114 0.03935-0.11792 0.10821-0.19993 0.20655-0.24604 0.10492-0.0457 0.25901-0.0688 0.46228-0.0688zm13.582 0c0.48524 0 0.83605 0.12133 1.0524 0.36397 0.21638 0.24265 0.32459 0.60983 0.32459 1.1016 0 0.48522-0.10821 0.87538-0.32459 1.1705-0.20984 0.28838-0.58358 0.43276-1.1213 0.43276h-0.65901v-2.2229c0-0.23622 0.01966-0.4131 0.05904-0.53114 0.03935-0.11792 0.10821-0.19994 0.20655-0.24605 0.10492-0.0457 0.25901-0.0688 0.46228-0.0688zm12.045 0c0.57704 0 0.99342 0.13758 1.2492 0.41311 0.25572 0.27552 0.38361 0.68194 0.38361 1.2196 0 0.51145-0.12132 0.91147-0.36393 1.2-0.24261 0.28838-0.68851 0.4328-1.3377 0.4328h-0.659v-2.4196c0-0.23622 0.01966-0.4131 0.059-0.53114 0.03935-0.11792 0.10821-0.19993 0.20655-0.24604 0.10492-0.0457 0.25901-0.0688 0.46228-0.0688zm14.619 0c0.58359 0 0.99996 0.15081 1.2491 0.45245 0.25573 0.30161 0.38361 0.7705 0.38361 1.4065 0 0.57705-0.12461 1.0393-0.37376 1.3868-0.24264 0.34092-0.68523 0.51149-1.3278 0.51149h-0.659v-2.9114c0-0.23622 0.0197-0.4131 0.059-0.53114 0.0393-0.11792 0.10821-0.19993 0.20659-0.24604 0.10492-0.0457 0.25901-0.0688 0.46228-0.0688zm-27.392 3.236h0.82621c0.60983 0 1.0524 0.13455 1.3278 0.40327 0.28195 0.26873 0.42294 0.66229 0.42294 1.1803 0 1.1475-0.6131 1.7213-1.8393 1.7213-0.20984 0-0.36722-0.0189-0.47212-0.059-0.09834-0.0457-0.16721-0.12472-0.20655-0.23622-0.03935-0.11149-0.05904-0.28535-0.05904-0.52131zm19.097 4.9314c-0.45507 0-0.87618 0.0714-1.2633 0.21392-0.38036 0.13569-0.68602 0.34961-0.91696 0.64184-0.23093 0.28536-0.34639 0.64188-0.34639 1.0698 0 0.35338 0.07812 0.66561 0.23433 0.93732 0.15621 0.26495 0.3566 0.4992 0.60111 0.70299 0.2445 0.20372 0.57053 0.44149 0.97807 0.71316 0.50942 0.33978 0.88299 0.64864 1.1207 0.92712 0.2445 0.27175 0.36676 0.60113 0.36676 0.98827 0 0.31257-0.11206 0.55695-0.33623 0.73357-0.21736 0.1765-0.51281 0.26494-0.88638 0.26494-0.60451 0-1.0528-0.25133-1.3449-0.75394-0.29208-0.50264-0.46188-1.1581-0.50942-1.9663h-0.23433c0 1.5078-0.0136 2.4927-0.04074 2.9546h0.23433c0.0204-0.15609 0.04755-0.26834 0.08152-0.33637 0.03401-0.0748 0.08152-0.11226 0.14264-0.11226 0.08152 0 0.19699 0.0476 0.34639 0.14249 0.23773 0.11566 0.49243 0.20712 0.76412 0.27515 0.27847 0.068 0.62488 0.10205 1.0392 0.10205 0.50942 0 0.97468-0.0748 1.3958-0.22413 0.42111-0.14929 0.75393-0.37341 0.99844-0.67241 0.2513-0.30577 0.37697-0.67922 0.37697-1.1207 0-0.34658-0.0713-0.65204-0.21396-0.91695-0.13583-0.26494-0.31585-0.49583-0.53997-0.69279-0.22416-0.20371-0.52301-0.43472-0.89657-0.69282-0.03402-0.0265-0.07132-0.0544-0.11206-0.0816-0.03401-0.0265-0.07132-0.051-0.11206-0.0714-0.44829-0.31257-0.77091-0.54679-0.96789-0.70299-0.19699-0.1629-0.3464-0.32958-0.44828-0.49924-0.1019-0.1697-0.15284-0.37002-0.15284-0.6011 0-0.29896 0.09509-0.52981 0.28528-0.69282 0.19018-0.1697 0.44149-0.25474 0.75393-0.25474 0.33963 0 0.63846 0.11225 0.89657 0.33637 0.2581 0.22413 0.46186 0.51281 0.6113 0.86601 0.1494 0.35301 0.23773 0.72336 0.26491 1.1105h0.23433c0-1.1682 0.017-1.9969 0.051-2.4859h-0.23433c-0.0204 0.15609-0.04755 0.27175-0.08149 0.3462-0.03401 0.068-0.08153 0.10205-0.14264 0.10205-0.04074 0-0.09169-0.0151-0.15281-0.0408-0.05435-0.0265-0.11886-0.0612-0.19358-0.10204-0.23093-0.12889-0.46865-0.22753-0.71318-0.29556-0.23773-0.0748-0.55017-0.11225-0.93732-0.11225zm9.6577 0c-0.74714 0-1.4128 0.1595-1.9969 0.47887s-1.0392 0.76751-1.3652 1.3448-0.48905 1.2396-0.48905 1.9867c0 0.76751 0.15961 1.4298 0.47885 1.9867 0.31922 0.55018 0.76751 0.9713 1.3449 1.2633 0.57733 0.29216 1.2498 0.43812 2.0173 0.43812 0.39395 0 0.73015-0.0544 1.0086-0.16289 0.27847-0.11566 0.57055-0.28196 0.8762-0.4992 0.0883-0.0544 0.15961-0.0816 0.21396-0.0816 0.0679 0 0.11887 0.0476 0.15284 0.14248 0.0407 0.0884 0.0713 0.24114 0.0917 0.4585h0.23433c-0.0272-0.49584-0.0408-1.3788-0.0408-2.649h-0.23433c-0.0476 0.6113-0.13583 1.0834-0.26491 1.4162-0.12903 0.33298-0.35319 0.59773-0.67242 0.79469-0.31922 0.20371-0.63506 0.30576-0.9475 0.30576-0.70638 0-1.2022-0.33978-1.4875-1.0188-0.28528-0.67922-0.42792-1.4909-0.42792-2.435 0-0.94412 0.14264-1.7558 0.42792-2.435s0.7811-1.0188 1.4875-1.0188c0.31245 0 0.62828 0.10204 0.9475 0.30576 0.31926 0.21052 0.54338 0.47206 0.67242 0.78452 0.12908 0.31256 0.21736 0.74033 0.26491 1.2837h0.23433c0-1.2158 0.0136-2.0648 0.0408-2.5471h-0.23433c-0.0407 0.40755-0.12903 0.6113-0.26487 0.6113-0.0611 0-0.12566-0.0302-0.19358-0.0918-0.27171-0.21052-0.55017-0.37341-0.83544-0.48903-0.28528-0.11565-0.63166-0.1731-1.0392-0.1731zm7.303 0c-0.74714 0-1.4128 0.1595-1.9969 0.47887s-1.0392 0.76751-1.3652 1.3448c-0.32602 0.57732-0.48901 1.2396-0.48901 1.9867 0 0.76751 0.15961 1.4298 0.47884 1.9867 0.31922 0.55018 0.76751 0.9713 1.3448 1.2633 0.57735 0.29216 1.2498 0.43812 2.0173 0.43812 0.74713 0 1.4128-0.15949 1.9969-0.47886 0.58413-0.31937 1.0392-0.76751 1.3652-1.3449 0.32603-0.57732 0.48904-1.2396 0.48904-1.9867 0-0.76751-0.15961-1.4264-0.47884-1.9765-0.31922-0.55695-0.76752-0.98147-1.3449-1.2736-0.57734-0.29216-1.2498-0.43809-2.0173-0.43809zm15.044 0c-0.74714 0-1.4128 0.1595-1.9969 0.47887s-1.0392 0.76751-1.3652 1.3448c-0.32603 0.57732-0.48904 1.2396-0.48904 1.9867 0 0.76751 0.15961 1.4298 0.47884 1.9867 0.31922 0.55018 0.76751 0.9713 1.3449 1.2633 0.57732 0.29216 1.2498 0.43812 2.0173 0.43812 0.39395 0 0.73016-0.0544 1.0086-0.16289 0.27848-0.11566 0.57053-0.28196 0.87619-0.4992 0.0883-0.0544 0.15961-0.0816 0.21396-0.0816 0.0679 0 0.11887 0.0476 0.15284 0.14248 0.0407 0.0884 0.0713 0.24114 0.0917 0.4585h0.23433c-0.0272-0.49584-0.0407-1.3788-0.0407-2.649h-0.23433c-0.0476 0.6113-0.13583 1.0834-0.2649 1.4162-0.12907 0.33298-0.3532 0.59773-0.67244 0.79469-0.31922 0.20371-0.63506 0.30576-0.94751 0.30576-0.70639 0-1.2022-0.33978-1.4875-1.0188-0.28527-0.67922-0.4279-1.4909-0.4279-2.435 0-0.94412 0.14264-1.7558 0.4279-2.435 0.28528-0.67922 0.7811-1.0188 1.4875-1.0188 0.31246 0 0.62827 0.10204 0.94751 0.30576 0.31921 0.21052 0.54338 0.47206 0.67244 0.78452 0.12903 0.31256 0.21732 0.74033 0.2649 1.2837h0.23433c0-1.2158 0.0136-2.0648 0.0407-2.5471h-0.23433c-0.0407 0.40755-0.12907 0.6113-0.2649 0.6113-0.0611 0-0.12567-0.0302-0.19359-0.0918-0.27167-0.21052-0.55017-0.37341-0.83544-0.48903-0.28528-0.11565-0.63167-0.1731-1.0392-0.1731zm-66.395 0.14249v0.20372c0.21736 0.0151 0.37357 0.0408 0.46866 0.0816 0.09509 0.0408 0.15961 0.11868 0.19359 0.23434 0.04074 0.11565 0.06112 0.30236 0.06112 0.56035v4.3402c0 0.40755-0.01701 0.7132-0.05095 0.91695-0.03402 0.20372-0.1019 0.35679-0.20375 0.45846-0.1019 0.0952-0.2581 0.1663-0.46866 0.21392v0.20372c0.20376-0.0189 0.48564-0.0302 0.84562-0.0302 0.48224 0 0.86261 0.0113 1.1411 0.0302v-0.20372c-0.32602-0.0476-0.56035-0.12208-0.70298-0.22413-0.13584-0.10204-0.22413-0.26154-0.26491-0.47886-0.04074-0.22413-0.06111-0.58753-0.06111-1.0901v-4.5541l2.8731 6.5408h0.16301l2.4554-6.276v5.2062c0 0.25814-0.02041 0.44489-0.06112 0.56035-0.04074 0.11528-0.11887 0.19351-0.23433 0.23433-0.10866 0.0408-0.28528 0.068-0.52979 0.0816v0.20372c0.38715-0.0189 0.99165-0.0302 1.8135-0.0302 0.78789 0 1.389 0.0113 1.8033 0.0302v-0.20372c-0.21736-0.0151-0.37357-0.0408-0.46866-0.0816-0.09509-0.0408-0.16301-0.11905-0.20375-0.23433-0.03402-0.11565-0.05095-0.30236-0.05095-0.56035v-5.0534c0-0.25814 0.01701-0.44489 0.05095-0.56035 0.03402-0.11566 0.09849-0.19351 0.19359-0.23433 0.1019-0.0408 0.26151-0.068 0.47885-0.0816v-0.20372c-0.41432 0.0189-1.0154 0.0302-1.8033 0.0302h-0.88637l-1.6709 4.2994-1.9256-4.33c-0.59092 0.0189-1.2939 0.0302-2.109 0.0302-0.36 0-0.64186-0.0113-0.84562-0.0302zm12.51 0-2.2618 5.8175c-0.15621 0.40074-0.30905 0.69282-0.45847 0.8762-0.14944 0.18331-0.30905 0.28876-0.47885 0.31597v0.20372c0.20376-0.0189 0.46527-0.0302 0.7845-0.0302 0.38036 0 0.82524 0.0113 1.3347 0.0302v-0.20372c-0.30565-0.0151-0.53657-0.0714-0.6928-0.1731-0.15621-0.10205-0.23433-0.29216-0.23433-0.57056 0-0.30576 0.11206-0.74713 0.33623-1.3245l0.17318-0.45849h2.058l0.60111 1.6709c0.08153 0.20372 0.12227 0.36661 0.12227 0.48903 0 0.12926-0.05435 0.22073-0.16301 0.27515-0.10866 0.0476-0.29208 0.0782-0.55017 0.0918v0.20372c0.36676-0.0189 0.93732-0.0302 1.7116-0.0302 0.74714 0 1.3652 0.0113 1.8543 0.0302v-0.20372c-0.1019-8e-3 -0.20716-0.0612-0.31585-0.1629-0.1019-0.10885-0.19695-0.27174-0.28528-0.48903l-2.4656-6.3575c-0.21736 0.0151-0.39395 0.0189-0.52979 0.0189-0.14264 0-0.32262-8e-3 -0.53998-0.0189zm3.4775 0c0.04755 0.75394 0.07132 1.4264 0.07132 2.0173 0 0.31256-0.01021 0.55695-0.03061 0.73353h0.23433c0.22416-0.89655 0.50942-1.5384 0.85582-1.9256 0.3532-0.39394 0.73695-0.59093 1.1513-0.59093h0.01021v5.8277c0 0.28536-0.03061 0.49244-0.09169 0.62147-0.05435 0.12888-0.15961 0.21732-0.31586 0.26494-0.14944 0.0408-0.39055 0.0612-0.72336 0.0612v0.20372c0.91694-0.0189 1.6165-0.0302 2.0988-0.0302 0.5298 0 1.2735 0.0113 2.2312 0.0302v-0.20372c-0.33283 0-0.57733-0.0189-0.73356-0.0612-0.14944-0.0476-0.2547-0.13568-0.31585-0.26494-0.05435-0.12888-0.08149-0.33638-0.08149-0.62147v-5.8277h0.01021c0.40754 0 0.78789 0.19691 1.1411 0.59093 0.3532 0.39394 0.64186 1.0358 0.866 1.9256h0.23433c-0.0204-0.17651-0.03061-0.42112-0.03061-0.73353 0-0.59093 0.02381-1.2634 0.07132-2.0173-0.64525 0.0189-1.7524 0.0302-3.3214 0.0302-1.5758 0-2.6863-0.0113-3.3316-0.0302zm7.1748 0v0.20372c0.21736 0.0151 0.37357 0.0408 0.46866 0.0816 0.09509 0.0408 0.15961 0.11868 0.19359 0.23434 0.04074 0.11565 0.06112 0.30236 0.06112 0.56035v5.0534c0 0.25814-0.01701 0.44489-0.05095 0.56035-0.03402 0.11528-0.10186 0.19351-0.20376 0.23433-0.09509 0.0408-0.2513 0.068-0.46866 0.0816v0.20372c0.38716-0.0189 0.99167-0.0302 1.8135-0.0302 0.74034 0 1.3075 0.0113 1.7014 0.0302v-0.20372c-0.21736-0.0151-0.37357-0.0408-0.46865-0.0816-0.09509-0.0408-0.16301-0.11905-0.20379-0.23433-0.03402-0.11565-0.05091-0.30236-0.05091-0.56035v-2.4452h2.2924v2.4452c0 0.25814-0.01701 0.44489-0.05091 0.56035-0.03401 0.11528-0.1019 0.19351-0.20379 0.23433-0.09509 0.0408-0.2513 0.068-0.46865 0.0816v0.20372c0.42112-0.0189 1.0222-0.0302 1.8033-0.0302 0.77431 0 1.3449 0.0113 1.7116 0.0302v-0.20372c-0.21736-0.0151-0.37357-0.0408-0.46867-0.0816-0.09509-0.0408-0.16301-0.11905-0.20376-0.23433-0.03402-0.11565-0.05095-0.30236-0.05095-0.56035v-5.0534c0-0.25814 0.01701-0.44489 0.05095-0.56035 0.03402-0.11566 0.0985-0.19352 0.19359-0.23434 0.1019-0.0408 0.26151-0.068 0.47885-0.0816v-0.20372c-0.36677 0.0189-0.93733 0.0302-1.7116 0.0302-0.78109 0-1.3822-0.0113-1.8033-0.0302v0.20372c0.21736 0.0151 0.37357 0.0408 0.46865 0.0816 0.09509 0.0408 0.15961 0.11868 0.19359 0.23434 0.04074 0.11565 0.06112 0.30236 0.06112 0.56035v2.4044h-2.2924v-2.4044c0-0.25814 0.01701-0.44489 0.05091-0.56035 0.03402-0.11566 0.09849-0.19352 0.19359-0.23434 0.1019-0.0408 0.26151-0.068 0.47884-0.0816v-0.20372c-0.40073 0.0189-0.96788 0.0302-1.7014 0.0302-0.82185 0-1.4264-0.0113-1.8135-0.0302zm35.056 0-2.2618 5.8175c-0.15621 0.40074-0.30905 0.69282-0.45847 0.8762-0.14945 0.18331-0.30905 0.28876-0.47885 0.31597v0.20372c0.20376-0.0189 0.46525-0.0302 0.78449-0.0302 0.38036 0 0.82525 0.0113 1.3346 0.0302v-0.20372c-0.30565-0.0151-0.53657-0.0714-0.69279-0.1731-0.15621-0.10205-0.23433-0.29216-0.23433-0.57056 0-0.30576 0.1121-0.74713 0.33622-1.3245l0.17318-0.45849h2.058l0.60109 1.6709c0.0815 0.20372 0.12227 0.36661 0.12227 0.48903 0 0.12926-0.0543 0.22073-0.16301 0.27515-0.10866 0.0476-0.29205 0.0782-0.55016 0.0918v0.20372c0.36677-0.0189 0.93732-0.0302 1.7116-0.0302 0.74714 0 1.3652 0.0113 1.8543 0.0302v-0.20372c-0.10189-8e-3 -0.20715-0.0612-0.31585-0.1629-0.1019-0.10885-0.19699-0.27174-0.28528-0.48903l-2.4656-6.3575c-0.21736 0.0151-0.39396 0.0189-0.5298 0.0189-0.14263 0-0.32262-8e-3 -0.53997-0.0189zm11.548 0v0.20372c0.21736 0.0151 0.37357 0.0408 0.46867 0.0816s0.15961 0.11868 0.19355 0.23434c0.0407 0.11565 0.0611 0.30236 0.0611 0.56035v5.0534c0 0.25814-0.017 0.44489-0.0509 0.56035-0.034 0.11528-0.1019 0.19351-0.20375 0.23433-0.0951 0.0408-0.2513 0.068-0.46867 0.0816v0.20372c0.38716-0.0189 0.99166-0.0302 1.8135-0.0302 0.74033 0 1.3075 0.0113 1.7014 0.0302v-0.20372c-0.21736-0.0151-0.37356-0.0408-0.46865-0.0816-0.0951-0.0408-0.16301-0.11905-0.20379-0.23433-0.034-0.11565-0.051-0.30236-0.051-0.56035v-2.4452h2.2924v2.4452c0 0.25814-0.017 0.44489-0.051 0.56035-0.034 0.11528-0.1019 0.19351-0.20376 0.23433-0.0951 0.0408-0.2513 0.068-0.46864 0.0816v0.20372c0.42111-0.0189 1.0222-0.0302 1.8033-0.0302 0.7743 0 1.3448 0.0113 1.7116 0.0302v-0.20372c-0.21736-0.0151-0.37357-0.0408-0.46867-0.0816s-0.16301-0.11905-0.20375-0.23433c-0.034-0.11565-0.051-0.30236-0.051-0.56035v-5.0534c0-0.25814 0.017-0.44489 0.051-0.56035 0.034-0.11566 0.0985-0.19352 0.19355-0.23434 0.10189-0.0408 0.2615-0.068 0.47886-0.0816v-0.20372c-0.36677 0.0189-0.93733 0.0302-1.7116 0.0302-0.78111 0-1.3822-0.0113-1.8033-0.0302v0.20372c0.21733 0.0151 0.37357 0.0408 0.46865 0.0816 0.0951 0.0408 0.1596 0.11868 0.19358 0.23434 0.0407 0.11565 0.0611 0.30236 0.0611 0.56035v2.4044h-2.2924v-2.4044c0-0.25814 0.017-0.44489 0.051-0.56035 0.034-0.11566 0.0985-0.19352 0.19359-0.23434 0.1019-0.0408 0.26151-0.068 0.47884-0.0816v-0.20372c-0.40073 0.0189-0.96788 0.0302-1.7014 0.0302-0.82186 0-1.4264-0.0113-1.8135-0.0302zm-18.455 0.0408c0.31922 0 0.61128 0.14589 0.87619 0.43808 0.26487 0.29216 0.47543 0.7064 0.63167 1.243 0.15621 0.53658 0.23433 1.1581 0.23433 1.8645 0 0.69959-0.0679 1.321-0.20375 1.8644-0.13584 0.54338-0.33283 0.9679-0.59092 1.2736-0.2513 0.29896-0.54338 0.44825-0.87619 0.44825-0.31922 0-0.6113-0.14589-0.87619-0.43809-0.26491-0.29215-0.47546-0.70639-0.63168-1.243-0.1562-0.53658-0.23433-1.158-0.23433-1.8644 0-0.69959 0.0679-1.3211 0.2038-1.8644 0.13583-0.54338 0.32942-0.9645 0.58072-1.2634 0.2581-0.30576 0.55355-0.45849 0.88637-0.45849zm-39.239 1.6913 0.92713 2.5471h-1.9052zm45.708 0 0.92712 2.5471h-1.9052z"/>
 </g>
</svg>
