<?xml version="1.0" encoding="UTF-8"?>
<!-- Created with Inkscape (http://www.inkscape.org/) -->
<svg width="668.76mm" height="668.76mm" version="1.1" viewBox="0 0 668.76 668.76" xmlns="http://www.w3.org/2000/svg" xmlns:cc="http://creativecommons.org/ns#" xmlns:dc="http://purl.org/dc/elements/1.1/" xmlns:rdf="http://www.w3.org/1999/02/22-rdf-syntax-ns#">
 <metadata>
  <rdf:RDF>
   <cc:Work rdf:about="">
    <dc:format>image/svg+xml</dc:format>
    <dc:type rdf:resource="http://purl.org/dc/dcmitype/StillImage"/>
    <dc:title/>
   </cc:Work>
  </rdf:RDF>
 </metadata>
 <g transform="translate(260.44 204.02)">
  <path transform="matrix(.26458 0 0 .26458 -260.44 -204.02)" d="m300.31 0c-166.37-3.7896e-14 -300.31 133.94-300.31 300.31v1927c0 166.37 133.94 300.31 300.31 300.31h1927c166.37 0 300.31-133.94 300.31-300.31v-1927c0-166.37-133.94-300.31-300.31-300.31h-1927zm987.33 305.74h469.46l-807.99 744.84v772.52h-318.2v-911.96-442.58h318.2v149.25l338.53-312.07zm609.05 80.479v1023.8l-368.41 362.92v-405.53l140.84-129.86v-234.16l-256.8 236.72v981.78h-318.2v-1095.8l802.57-739.88z" color="#000000" fill="#fff"/>
 </g>
</svg>
