<?xml version="1.0" encoding="UTF-8" standalone="no"?>
<svg
   xmlns:dc="http://purl.org/dc/elements/1.1/"
   xmlns:cc="http://creativecommons.org/ns#"
   xmlns:rdf="http://www.w3.org/1999/02/22-rdf-syntax-ns#"
   xmlns:svg="http://www.w3.org/2000/svg"
   xmlns="http://www.w3.org/2000/svg"
   xmlns:sodipodi="http://sodipodi.sourceforge.net/DTD/sodipodi-0.dtd"
   xmlns:inkscape="http://www.inkscape.org/namespaces/inkscape"
   sodipodi:docname="rp_logo_green.svg"
   inkscape:version="1.0 (4035a4fb49, 2020-05-01)"
   id="svg8"
   version="1.1"
   viewBox="0 0 211.882 211.88399"
   height="235.42667mm"
   width="235.42444mm">
  <defs
     id="defs2" />
  <sodipodi:namedview
     inkscape:document-rotation="0"
     fit-margin-bottom="0"
     fit-margin-right="0"
     fit-margin-left="0"
     fit-margin-top="0"
     inkscape:window-maximized="1"
     inkscape:window-y="-8"
     inkscape:window-x="-8"
     inkscape:window-height="705"
     inkscape:window-width="1366"
     showborder="false"
     scale-x="0.9"
     showgrid="false"
     inkscape:current-layer="layer1"
     inkscape:document-units="mm"
     inkscape:cy="539.94884"
     inkscape:cx="273.49086"
     inkscape:zoom="0.23547849"
     inkscape:pageshadow="2"
     inkscape:pageopacity="0.0"
     borderopacity="1.0"
     bordercolor="#666666"
     pagecolor="#ffffff"
     id="base" />
  <metadata
     id="metadata5">
    <rdf:RDF>
      <cc:Work
         rdf:about="">
        <dc:format>image/svg+xml</dc:format>
        <dc:type
           rdf:resource="http://purl.org/dc/dcmitype/StillImage" />
        <dc:title />
      </cc:Work>
    </rdf:RDF>
  </metadata>
  <g
     transform="translate(137.691,-1.313952)"
     id="layer1"
     inkscape:groupmode="layer"
     inkscape:label="Layer 1">
    <g
       style="fill:#f5f5f5;fill-opacity:1"
       transform="translate(-126.17,-30.555048)"
       id="g819">
      <path
         style="color:#000000;fill:#f5f5f5;fill-opacity:1"
         inkscape:connector-curvature="0"
         d="m 18.275,31.869 c -16.507,2.6e-5 -29.796,13.29 -29.796,29.797 v 152.29 c 0,16.507 13.289,29.797 29.796,29.797 h 152.29 c 16.507,0 29.796,-13.29 29.796,-29.797 V 61.666 c 0,-16.507 -13.289,-29.797 -29.796,-29.797 z m 47.463,56.257 a 42.615,42.615 0 0 1 24.105,7.5277 51.526,51.526 0 0 0 -11.7,20.483 19.165,19.165 0 0 0 -12.405,-4.5615 19.165,19.165 0 0 0 -19.165,19.165 v 42.614 h -23.45 v -42.614 a 42.615,42.615 0 0 1 42.615,-42.615 z m 61.78,0 a 42.615,42.615 0 0 1 42.615,42.615 42.615,42.615 0 0 1 -42.615,42.614 42.615,42.615 0 0 1 -10.722,-1.4009 v -25.336 a 19.165,19.165 0 0 0 10.722,3.2871 19.165,19.165 0 0 0 19.165,-19.165 19.165,19.165 0 0 0 -19.165,-19.165 19.165,19.165 0 0 0 -19.165,19.165 v 69.999 h -23.45 v -69.999 a 42.615,42.615 0 0 1 42.614,-42.615 z"
         id="path817" />
    </g>
  </g>
</svg>
