<?xml version="1.0" encoding="UTF-8"?>
<!-- Created with Inkscape (http://www.inkscape.org/) -->
<svg width="91.593mm" height="66.992mm" version="1.1" viewBox="0 0 91.593 66.992" xmlns="http://www.w3.org/2000/svg" xmlns:cc="http://creativecommons.org/ns#" xmlns:dc="http://purl.org/dc/elements/1.1/" xmlns:rdf="http://www.w3.org/1999/02/22-rdf-syntax-ns#" xmlns:xlink="http://www.w3.org/1999/xlink">
 <defs>
  <radialGradient id="radialGradient21507" cx="7.4132" cy="71.132" r="45.796" gradientTransform="matrix(-.0066154 1.457 -2.0008 -.0090847 149.78 73.228)" gradientUnits="userSpaceOnUse">
   <stop stop-color="#fff" stop-opacity=".17647" offset="0"/>
   <stop stop-color="#fff" stop-opacity="0" offset="1"/>
  </radialGradient>
 </defs>
 <metadata>
  <rdf:RDF>
   <cc:Work rdf:about="">
    <dc:format>image/svg+xml</dc:format>
    <dc:type rdf:resource="http://purl.org/dc/dcmitype/StillImage"/>
    <dc:title/>
   </cc:Work>
  </rdf:RDF>
 </metadata>
 <g transform="translate(-7.2666 -83.246)">
  <path d="m65.881 83.246-1.6547 0.66663 0.97668 2.4221-2.3973 0.96583 0.64957 1.6108 2.3968-0.96635 0.97358 2.4159 1.6542-0.66714-0.97358-2.4154 2.3968-0.96635-0.64906-1.6102-2.3968 0.96583zm-25.894 0.75913-6.6358 1.1441c0.01677-0.22043 0.07021-0.43963 0.17312-0.64544l-1.5229 0.87798-0.01447 0.0027 0.0011 0.0052-1.0806 0.62322 2.9714 0.5457c-0.16584-0.16321-0.2903-0.35404-0.38038-0.5576l6.6347-1.1441zm-15.37 0.64337-1.7828 0.41393 0.42581 1.835 1.7828-0.41393zm-5.2374 1.1136a0.31853 0.31853 0 0 0-0.19224 0.05581l-4.4049 2.9786a0.31853 0.31853 0 0 0 0.0083 0.53278l4.5506 2.8959a0.31853 0.31853 0 0 0 0.48834-0.2775l-0.14522-5.8746a0.31853 0.31853 0 0 0-0.30489-0.31109zm29.589 0.87178-0.30024 1.9456-1.9611-0.30231-0.20722 1.3431 1.9611 0.30231-0.29972 1.9461 1.3074 0.20154 0.29972-1.9456 1.9663 0.30282 0.20722-1.3431-1.9663-0.30334 0.30024-1.9456zm-29.907 0.03721 0.11627 4.6964-3.6365-2.3151zm8.5318 0.08733-6.503 1.51 0.39842 1.7177 6.5035-1.51zm25.629 0.20981-0.49041 0.71262 5.5459 3.8163c-0.16573 0.14552-0.35673 0.2643-0.57361 0.33952l1.6976 0.43408 0.01757 0.01188 0.0041-0.0062 1.2077 0.30851-1.7451-2.466c0.0046 0.23289-0.03991 0.45678-0.11782 0.66559zm-9.6067 1.0454a0.36598 0.36598 0 0 0-0.13384 0.02066l-4.0613 1.4149a0.36598 0.36598 0 0 0-0.22479 0.46509l1.4547 4.1755a0.36598 0.36598 0 0 0 0.46509 0.22479l4.0613-1.4149a0.36598 0.36598 0 0 0 0.22686-0.4656l-1.4552-4.176a0.36598 0.36598 0 0 0-0.3328-0.24443zm37.589 0.08992-0.96686 0.87023 3.5238 3.9145 0.96686-0.86972zm10.657 0.24288a0.42254 0.42254 0 0 0-0.0708 0.0041l-5.0514 0.73897a0.42254 0.42254 0 0 0-0.35657 0.47853l0.71882 4.9144a0.42254 0.42254 0 0 0 0.47852 0.35657l5.0519-0.73897a0.42254 0.42254 0 0 0 0.35605-0.47852l-0.71881-4.9144a0.42254 0.42254 0 0 0-0.40773-0.3607zm-48.485 0.49764 1.2139 3.484-3.3698 1.1741-1.2139-3.484zm48.117 0.40514 0.59583 4.0757-4.2127 0.61598-0.59635-4.0757zm-65.671 0.59789-1.7828 0.41393 0.42581 1.835 1.7828-0.41393zm10.917 0.08372-5.8787 0.17002 0.04237 1.4516 5.8782-0.17002zm39.076 0.3235-1.0635 0.84594 1.2382 1.5575-1.541 1.2252 0.82372 1.0356 1.541-1.2258 1.2351 1.5534 1.0635-0.84646-1.2351-1.5529 1.541-1.2252-0.82372-1.0356-1.541 1.2258zm-11.949 0.31212-0.74931 5.8332 1.4402 0.185 0.74931-5.8332zm8.2233 1.1147a0.31853 0.31853 0 0 0-0.14004 0.03979l-5.1397 2.8484a0.31853 0.31853 0 0 0-0.13384 0.41444 0.31853 0.31853 0 0 0 0.13798 0.14418l4.6798 2.5254a0.31853 0.31853 0 0 0 0.46819-0.25373l0.45992-5.3743a0.31853 0.31853 0 0 0-0.33228-0.34416zm-0.35244 0.88573-0.36845 4.2948-3.7403-2.0174zm-56.503 0.63769-0.30076 1.5823 6.4094 1.217 0.30076-1.5823zm34.449 0.82682 1.0464 2.3957-2.0149 1.8867 1.3307 0.28009 1.1622-1.1457 0.59376 1.5152 1.3958 0.29352-1.1141-2.5962 1.8841-1.7286-1.3348-0.2806-1.0495 1.0129-0.51211-1.3415zm45.407 0.32298-0.99322 1.0599 1.0599 0.9927 0.9927-1.0599zm-37.023 0.0026a0.36598 0.36598 0 0 0-0.22221 0.0894l-3.329 2.9104a0.36598 0.36598 0 0 0-0.03462 0.51521l2.8319 3.2396a0.36598 0.36598 0 0 0 0.51573 0.0346l3.329-2.9104a0.36598 0.36598 0 0 0 0.03462-0.51573l-2.8324-3.239a0.36598 0.36598 0 0 0-0.293-0.12402zm34.181 0.21808-0.92914 0.99167 3.8654 3.6215 0.92914-0.99167zm-63.397 0.09508-0.47852 1.371 1.371 0.47852 0.47852-1.371zm54.992 0.31058 0.15348 3.93-3.4205 0.99684 1.6459 1.1741 1.9306-0.61753-0.0062 1.9911 1.7105 1.2206-0.16588-3.638 3.6773-1.1141-1.6407-1.171-2.1503 0.71417-0.01394-2.2583zm-25.793 0.2589 2.3487 2.6861-2.7761 2.4272-2.3487-2.6867zm-20.607 0.34623v2.5843h-2.6045v1.7839h2.6045v2.5843h1.7363v-2.5843h2.6117v-1.7839h-2.6117v-2.5843zm7.4807 0.03669-0.8046 0.25787 1.6195 5.0426c-0.21557 0.0138-0.43487-8e-3 -0.64802-0.0796l1.0573 1.3539 0.0047 0.015 0.0052-2e-3 0.74879 0.9586 0.12351-2.9482c-0.13562 0.183-0.30371 0.32896-0.48886 0.4439zm-18.581 0.39998-0.44752 1.2831 5.0007 1.7451 0.44804-1.2831zm51.866 0.5979-1.6304 5.5862c-0.21672-0.12733-0.41428-0.29129-0.57309-0.4992l0.13643 1.9952-0.0052 0.0176 0.0067 2e-3 0.09664 1.4154 2.0438-2.7652c-0.24966 0.0879-0.5071 0.1197-0.76016 0.11007l1.6304-5.5867zm-65.324 0.23259a0.42254 0.42254 0 0 0-0.15244 0.02273l-4.6907 1.6345a0.42254 0.42254 0 0 0-0.25942 0.53692l1.679 4.8193a0.42254 0.42254 0 0 0 0.53743 0.25993l4.6902-1.6345a0.42254 0.42254 0 0 0 0.25942-0.53692l-1.679-4.8193a0.42254 0.42254 0 0 0-0.38447-0.28267zm79.392 0.50333-0.9927 1.0599 1.0599 0.99271 0.9927-1.0599zm-79.667 0.45579 1.4015 4.0225-3.8912 1.356-1.402-4.0225zm52.059 0.15555-1.4438 1.0123 3.8313 5.4674 1.4444-1.0124zm3.6251 0.41858-1.5425 1.0811 1.0501 1.4986 1.5431-1.0811zm-40.798 0.16743-0.47852 1.371 1.371 0.47852 0.47852-1.371zm-7.4791 0.36949-1.2681 0.37672 0.56069 1.8872-1.9022 0.56534 0.38706 1.3028 1.9022-0.56482 0.56069 1.8872 1.2681-0.37672-0.56069-1.8872 1.9074-0.56689-0.38706-1.3028-1.9074 0.56637zm71.683 0.83612-1.5498 0.53175-0.50281 1.5642-1.31-0.94258-1.6108 0.55293 2.4769 1.6046-0.99839 2.9497 1.5451-0.52968 0.54209-1.7544 1.496 1.0552 1.6201-0.55604-2.6634-1.7508zm-58.999 0.06873a0.31853 0.31853 0 0 0-0.18552 0.07441l-4.0917 3.3962a0.31853 0.31853 0 0 0 0.06046 0.52969l4.8126 2.4355a0.31853 0.31853 0 0 0 0.45889-0.32453l-0.72089-5.8317a0.31853 0.31853 0 0 0-0.33383-0.27956zm-0.22634 0.93534 0.57619 4.6622-3.8458-1.9472zm41.662 0.55707-1.5803 0.31265 1.2671 6.3996 1.5803-0.31265zm-10.213 0.12868-1.5431 1.0811 1.0506 1.4991 1.5431-1.0816zm-8.7194 0.79892a0.31853 0.31853 0 0 0-0.31523 0.35501l0.60978 5.3594a0.31853 0.31853 0 0 0 0.52296 0.20516l4.4767-3.8065a0.31853 0.31853 0 0 0 0.04961-0.43253 0.31853 0.31853 0 0 0-0.16382-0.1142l-5.086-1.5524a0.31853 0.31853 0 0 0-0.09405-0.0139zm0.3731 0.76532 4.0649 1.2402-3.5786 3.0427zm26.142 0.39688a0.42254 0.42254 0 0 0-0.25683 0.10335l-3.8437 3.3605a0.42254 0.42254 0 0 0-0.04031 0.59531l3.2696 3.7388a0.42254 0.42254 0 0 0 0.5948 0.0403l3.8437-3.3605a0.42254 0.42254 0 0 0 0.04031-0.59531l-3.2691-3.7394a0.42254 0.42254 0 0 0-0.33848-0.14313zm-32.719 0.58601v1.4521h1.4521v-1.4521zm22.052 0.21962a0.31853 0.31853 0 0 0-0.1111 0.0258l-5.3945 2.3306a0.31853 0.31853 0 0 0-0.17415 0.39894 0.31853 0.31853 0 0 0 0.12351 0.15762l4.4096 2.9719a0.31853 0.31853 0 0 0 0.49092-0.20671l0.98495-5.303a0.31853 0.31853 0 0 0-0.32918-0.37517zm10.647 0.21188 2.7125 3.1026-3.2055 2.8024-2.7125-3.1026zm-11.053 0.6351-0.78807 4.238-3.5243-2.375zm-56.399 0.55862 2.3792 3.8706c0.01566-0.35017 0.09881-0.68469 0.23616-0.99064l6.0461 4.7635 0.80512-1.0211-6.0472-4.764c0.26346-0.20325 0.56684-0.35903 0.90072-0.45114l-2.5125-0.81804-0.01913-0.0155-0.0057 7e-3zm27.192 0.12196-5.5252 2.0154 0.49764 1.3643 5.5252-2.0154zm52.409 0.22117a0.31853 0.31853 0 0 0-0.30489 0.22841l-1.5389 5.1692a0.31853 0.31853 0 0 0 0.4005 0.39377l5.6105-1.7482a0.31853 0.31853 0 0 0 0.21497-0.37827 0.31853 0.31853 0 0 0-0.10594-0.16899l-4.0711-3.4216a0.31853 0.31853 0 0 0-0.20516-0.0744zm-46.77 0.13488v1.3591h5.2968v-1.3591zm-22.107 0.2775 2.2479 2.8649-2.3461 3.0432h2.0154l1.3358-1.8304 1.3229 1.8304h2.1136l-2.4076-3.1099 2.2056-2.7983h-2.0216l-1.2128 1.6247-1.1519-1.6247zm69.045 0.46251 3.2541 2.7337-4.485 1.3978zm-4.286 0.52555-2.7807 0.98753c0.21969 0.0572 0.41731 0.15817 0.59273 0.28629l-4.0721 3.3863 0.54105 0.65009 4.0726-3.3864c0.09311 0.19454 0.15466 0.40584 0.16795 0.62993l0.85938-1.4841 0.01344-0.0114-0.0041-5e-3zm-40.729 0.74465v1.4521h1.4521v-1.4521zm16.298 1.1384-0.8754 1.1586 1.1586 0.8754 0.8754-1.1586zm-25.447 0.03a0.42254 0.42254 0 0 0-0.38602 0.32349l-1.2025 4.9599a0.42254 0.42254 0 0 0 0.31213 0.51004l4.825 1.17a0.42254 0.42254 0 0 0 0.5116-0.31006l1.2025-4.9599a0.42254 0.42254 0 0 0-0.31161-0.5116l-4.825-1.1705a0.42254 0.42254 0 0 0-0.12609-0.0114zm16.786 0.48937a0.42254 0.42254 0 0 0-0.11162 0.0165l-4.7682 1.3906a0.42254 0.42254 0 0 0-0.28681 0.52296l1.4289 4.8994a0.42254 0.42254 0 0 0 0.52348 0.28887l4.7682-1.3906a0.42254 0.42254 0 0 0 0.28629-0.52503l-1.4289-4.8994a0.42254 0.42254 0 0 0-0.41134-0.30333zm5.8586 0-0.81907 1.0842 4.2261 3.1931 0.81959-1.0842zm-22.308 0.44339 4.0054 0.97151-1.0036 4.1377-4.0049-0.971zm16.169 0.50126 1.1927 4.0897-3.9563 1.1534-1.1927-4.0892zm-39.715 0.0796a0.42254 0.42254 0 0 0-0.22427 0.0765l-4.1755 2.9342a0.42254 0.42254 0 0 0-0.10232 0.58807l2.8556 4.0633a0.42254 0.42254 0 0 0 0.58808 0.10284l4.1755-2.9347a0.42254 0.42254 0 0 0 0.10232-0.58756l-2.8556-4.0638a0.42254 0.42254 0 0 0-0.3638-0.1788zm58.972 0.22169-0.6935 1.0997 6.518 4.0995c-0.24048 0.22986-0.52581 0.41682-0.84801 0.54364l2.5833 0.54777 0.02223 0.0139 0.0052-8e-3 1.834 0.38912-2.775-3.5977c0.02138 0.34945-0.02569 0.69082-0.12971 1.0092zm14.429 0.40204-1.3488 0.16898 0.2465 1.9689-1.9539 0.24443 0.16433 1.3126 1.9534-0.24443 0.24701 1.9746 1.3482-0.16898-0.2465-1.974 1.9539-0.24443-0.16433-1.3126-1.9539 0.24443zm-73.484 0.38706 2.3699 3.3714-3.4851 2.4495-2.3699-3.3714zm46.26 0.72761-0.8754 1.1586 1.1586 0.8754 0.8754-1.1586zm12.102 0.47232-2.004 0.21291-1.1348 1.9606-1.509-1.68-2.1017 0.22324 2.7223 2.8381-1.8976 3.0153 2.0102-0.21342 1.0346-1.7436 1.3172 1.494 2.0893-0.22221-2.5383-2.6112zm-46.933 1.7156a0.31853 0.31853 0 0 0-0.30437 0.22842l-1.5394 5.1692a0.31853 0.31853 0 0 0 0.40101 0.39377l5.6105-1.7482a0.31853 0.31853 0 0 0 0.21497-0.37827 0.31853 0.31853 0 0 0-0.10594-0.1695l-4.0711-3.421a0.31853 0.31853 0 0 0-0.20567-0.0744zm0.16795 0.87489 3.2541 2.7337-4.485 1.3978zm66.254 0.30851-1.5431 0.85369 3.2329 5.8415 1.5431-0.85422zm-70.332 0.5333-1.604 0.14469 0.58446 6.4973 1.604-0.14418zm38.253 0.17156-5.2813 2.5874 0.63924 1.3043 5.2808-2.5874zm35.639 0.0935-1.648 0.91209 0.88625 1.6014 1.648-0.91209zm-48.203 0.79943-1.4438 0.15348 0.15348 1.4438 1.4438-0.15296zm40.411 0.51367-2.0174 1.6624-2.3668-1.4216 0.09509 1.357 1.4201 0.80357-1.2945 0.98599 0.10025 1.4232 2.1916-1.7828 2.1782 1.3394-0.0956-1.3612-1.2614-0.73174 1.1498-0.8599zm-12.113 1.1436-1.3069 0.37207 1.45 5.0943 1.3074-0.37207zm15.236 0.12764-1.648 0.91209 0.88625 1.6014 1.6485-0.91209zm-41.4 0.10387-5.2669 0.55914 0.14314 1.3518 5.2674-0.55965zm-8.7545 0.14056a0.31853 0.31853 0 0 0-0.21497 0.0987l-4.0499 4.2581a0.31853 0.31853 0 0 0-0.0036 0.43563 0.31853 0.31853 0 0 0 0.17518 0.0961l5.2214 1.0067a0.31853 0.31853 0 0 0 0.37052-0.38241l-1.1715-5.2648a0.31853 0.31853 0 0 0-0.32711-0.24805zm37.468 0.90072-1.3963 0.39791 0.39739 1.3963 1.3968-0.39739zm-37.632 0.0692 0.93586 4.2075-4.1734-0.80357zm-12.554 0.21652-1.5425 0.85422 3.2329 5.841 1.5431-0.85369zm31.496 0.0749-1.2211 0.5085 0.75654 1.8175-1.8366 0.76481 0.52245 1.2547 1.8366-0.76481 0.75706 1.8175 1.2211-0.50849-0.75654-1.8175 1.8319-0.76275-0.52245-1.2547-1.8319 0.76274zm-45.472 0.076-1.1467 0.72916 1.064 1.6748-1.6619 1.0558 0.70952 1.1167 1.6619-1.0563 1.0671 1.6795 1.1472-0.72916-1.0671-1.679 1.6614-1.0563-0.70952-1.1162-1.6614 1.0558zm51.863 3e-3a0.42254 0.42254 0 0 0-0.42426 0.3235l-1.1829 4.9646a0.42254 0.42254 0 0 0 0.31213 0.51005l4.8312 1.1514a0.42254 0.42254 0 0 0 0.50901-0.31471l1.1829-4.9646a0.42254 0.42254 0 0 0-0.31264-0.50797l-4.8317-1.1514a0.42254 0.42254 0 0 0-0.08372-0.0109zm-34.326 0.64492-1.6485 0.91209 0.88625 1.6015 1.6485-0.91209zm42.669 0.0419-1.3968 0.3974 0.39739 1.3968 1.3968-0.39791zm-26.457 0.0341-1.4438 0.15348 0.15296 1.4438 1.4444-0.15348zm18.412 0.20878 4.0085 0.95498-0.98702 4.1439-4.0091-0.9555zm-39.294 2.2996-1.6485 0.91209 0.88625 1.6014 1.6485-0.91209zm55.161 0.40463-1.049 0.86454 1.2619 1.5312-1.5193 1.2521 0.84129 1.0211 1.5198-1.2526 1.265 1.5353 1.049-0.86403-1.2656-1.5353 1.5193-1.2526-0.84129-1.0206-1.5193 1.2521zm-28.075 0.0992-1.7265 0.18345 0.27285 2.5699-2.5967 0.27543 0.18862 1.774 2.5967-0.27595 0.27285 2.5699 1.7265-0.18345-0.27285-2.5694 2.59-0.27543-0.18862-1.7735-2.59 0.27492zm34.35 0.35346-1.4681 0.66301 2.6856 5.9454 1.4681-0.663zm-39.553 0.33848-2.6794 1.2371c0.22437 0.037 0.43146 0.1196 0.61805 0.23151l-3.7471 3.7424 0.59789 0.5979 3.746-3.7429c0.11051 0.18531 0.19113 0.39034 0.22479 0.61237l0.72088-1.5575 0.01138-0.0114-0.0041-4e-3zm30.551 0.11886a0.31853 0.31853 0 0 0-0.11782 0.0238l-4.9878 2.0536a0.31853 0.31853 0 0 0-0.05426 0.55914l4.887 3.2639a0.31853 0.31853 0 0 0 0.42943-0.0708 0.31853 0.31853 0 0 0 0.06511-0.18913l0.10077-5.3165a0.31853 0.31853 0 0 0-0.32246-0.32401zm-0.32401 0.79788-0.07958 4.2494-3.9067-2.6091zm-56.894 0.37879-0.99322 1.0594 1.0599 0.9927 0.9927-1.0594zm-2.8412 0.22014-0.92914 0.99219 3.8654 3.621 0.92914-0.99167zm15.47 0.41445 1.3818 2.4639-1.6914 1.9177 1.3575 0.1385 0.93638-1.1178 0.65112 1.2795 1.4108 0.14366-1.294-2.2717 1.8045-2.0893-1.3529-0.13798-1.0346 1.2619-0.75086-1.4438zm-20.303 0.32194-2.3239 2.5337c0.25769-0.061 0.51664-0.0653 0.7674-0.0289l-1.9751 4.8038-0.35708-1.2547-2.1399 2.9466-3.5688-1.4232 0.55139 1.9384 2.126 0.78341-1.3978 1.7735 0.57878 2.033 2.3316-3.1672 3.2949 1.355-0.55345-1.9441-1.8945-0.72192 1.247-1.5524 0.45475 0.18707 2.2128-5.3836c0.20213 0.14952 0.38076 0.33349 0.51677 0.55707l0.07493-1.9968 0.0078-0.0186-0.0067-3e-3zm47.541 0.98082-0.33124 1.4139 1.4139 0.33073 0.33124-1.4139zm-42.68 1.064-0.99271 1.0599 1.0599 0.99271 0.99271-1.0594zm8.0398 0.0754 1.4748 2.6365c0.01992-0.23156 0.08741-0.44896 0.18655-0.64802l5.1134 4.3796 0.56224-0.65629-5.1129-4.3806c0.1804-0.12755 0.38319-0.22603 0.6072-0.27802l-1.6464-0.61236-0.01394-0.0119-0.0041 5e-3zm32.288 0.47025-0.31006 1.3229 5.1578 1.2077 0.30954-1.3234zm7.5871 1e-3 -0.13126 1.6056 6.5019 0.53278 0.13178-1.6051zm-43.607 0.79169-1.3612 5.7211 1.4128 0.33642 1.3612-5.7216zm-1.3612 5.7211-1.7157 0.48835 0.71314 2.5053-2.4856 0.70745 0.47542 1.6702 2.4856-0.70745 0.71468 2.5115 1.7157-0.48835-0.71468-2.512 2.4851-0.70745-0.47542-1.6697-2.4851 0.70745zm64.58-5.594a0.31853 0.31853 0 0 0-0.26768 0.1354l-3.1135 4.4044a0.31853 0.31853 0 0 0 0.25373 0.50126l5.8746 0.14004a0.31853 0.31853 0 0 0 0.32556-0.28939 0.31853 0.31853 0 0 0-0.04651-0.1943l-2.7616-4.5449a0.31853 0.31853 0 0 0-0.26458-0.15245zm-37.864 0.32298a0.36598 0.36598 0 0 0-0.1695 0.0351l-3.8892 1.8361a0.36598 0.36598 0 0 0-0.17311 0.48782l1.8867 3.9972a0.36598 0.36598 0 0 0 0.48628 0.17415l3.8892-1.8361a0.36598 0.36598 0 0 0 0.17622-0.4868l-1.8872-3.9972a0.36598 0.36598 0 0 0-0.31936-0.21032zm-33.585 0.4501a0.31853 0.31853 0 0 0-0.31264 0.2589l-1.0247 5.2953a0.31853 0.31853 0 0 0 0.4377 0.35295l5.4116-2.2903a0.31853 0.31853 0 0 0 0.17725-0.39739 0.31853 0.31853 0 0 0-0.12247-0.15813l-4.3868-3.0056a0.31853 0.31853 0 0 0-0.17983-0.0558zm71.421 0.12609 2.2076 3.6313-4.6964-0.11162zm-38.024 0.2775 1.5751 3.3362-3.2282 1.5239-1.5751-3.3362zm12.265 0.29869-0.33073 1.4139 1.4139 0.33125 0.33073-1.4139zm17.683 0.0393-0.8139 2.4846-2.76 0.0667 0.80667 1.0945 1.6299-0.0811-0.56534 1.526 0.84594 1.1482 0.89659-2.6789 2.5569-0.0351-0.80925-1.0986-1.4573 0.0574 0.51108-1.342zm-63.125 0.11472 3.5062 2.4014-4.3264 1.8304zm38.024 0.94878a0.31853 0.31853 0 0 0-0.29714 0.39119l1.3327 5.7232a0.31853 0.31853 0 0 0 0.36174 0.24236 0.31853 0.31853 0 0 0 0.17673-0.0935l3.7098-3.8097a0.31853 0.31853 0 0 0-0.11576-0.51987l-5.0431-1.9136a0.31853 0.31853 0 0 0-0.12506-0.0202zm14.271 9e-3a0.31853 0.31853 0 0 0-0.30231 0.36019l0.76481 5.8265a0.31853 0.31853 0 0 0 0.3359 0.27647 0.31853 0.31853 0 0 0 0.185-0.0755l4.0659-3.4277a0.31853 0.31853 0 0 0-0.0646-0.52865l-4.8307-2.3988a0.31853 0.31853 0 0 0-0.154-0.0326zm23.616 0.5116-1.1467 0.72916 1.064 1.6748-1.6614 1.0558 0.70952 1.1167 1.6614-1.0563 1.0671 1.6795 1.1472-0.72915-1.0671-1.679 1.6619-1.0563-0.70952-1.1162-1.6619 1.0557zm-37.429 0.30696 4.0297 1.5301-2.9642 3.0448zm14.219 0.0496 3.8607 1.9182-3.2489 2.7394zm-29.23 0.56896-0.0925 1.9663-1.9875-0.0935-0.06408 1.3575 1.9875 0.0941-0.09302 1.9663 1.3214 0.0625 0.09302-1.9668 1.9818 0.0935 0.06408-1.3575-1.9818-0.0935 0.0925-1.9668zm22.997 0.98908-1.7291 0.59997 0.61753 1.7802 1.7291-0.59996zm-29.995 0.86505a0.36598 0.36598 0 0 0-0.19379 0.0661l-3.6158 2.5414a0.36598 0.36598 0 0 0-0.09044 0.51005l2.4738 3.5202a0.36598 0.36598 0 0 0 0.51056 0.0873l3.6163-2.5414a0.36598 0.36598 0 0 0 0.08888-0.50849l-2.4743-3.5202a0.36598 0.36598 0 0 0-0.31522-0.15503zm-0.07131 0.8754 2.0521 2.9192-3.0189 2.1213-2.0516-2.9192zm33.25 0.0434-6.3076 2.1885 0.57826 1.666 6.3071-2.1885zm18.768 0.0155-2.2479 0.36535-0.02429-5e-3 -0.0016 9e-3 -1.5978 0.25993 3.3574 2.0288c-0.12643-0.27466-0.19509-0.56426-0.21083-0.85315l6.5252 1.263 0.2129-1.1038-6.5247-1.263c0.1217-0.25968 0.29223-0.49881 0.5116-0.70125zm-8.3695 0.85576-0.96635 1.0836 1.0831 0.96687 0.96686-1.0836zm-2.8345 0.2899-0.90485 1.0139 3.9522 3.5264 0.90485-1.0139zm-29.809 1.3017-0.43046 2.9905c0.15665-0.17195 0.34272-0.30365 0.5426-0.40153l1.3994 6.5862 0.84594-0.17983-1.3994-6.5867c0.22085 8e-3 0.44156 0.0535 0.65112 0.14831l-0.93534-1.4862-0.0036-0.0165-0.0062 1e-3zm-28.293 0.0274-1.0526 0.76326 3.0908 4.2654 1.0532-0.76326zm38.482 0.17622-5.8276 0.78961 0.19482 1.4392 5.8281-0.79013zm10.621 0.59169-1.7291 0.59997 0.61754 1.7802 1.7291-0.59996zm20.817 0.54415a0.42254 0.42254 0 0 0-0.22376 0.076l-4.1755 2.9342a0.42254 0.42254 0 0 0-0.10284 0.58808l2.8562 4.0633a0.42254 0.42254 0 0 0 0.58756 0.10284l4.1755-2.9347a0.42254 0.42254 0 0 0 0.10284-0.58756l-2.8562-4.0638a0.42254 0.42254 0 0 0-0.3638-0.17828zm-11.722 0.1385-0.96687 1.0836 1.0837 0.96635 0.96686-1.0831zm11.64 0.87178 2.3694 3.3719-3.4851 2.4489-2.3694-3.3714zm-72.03 1.5642-5.1015 0.20154a0.42254 0.42254 0 0 0-0.40514 0.43821l0.19586 4.9625a0.42254 0.42254 0 0 0 0.43822 0.40514l5.1015-0.20102a0.42254 0.42254 0 0 0 0.40462-0.43821l-0.19534-4.963a0.42254 0.42254 0 0 0-0.43822-0.40514zm14.47 0.72037-4.408 2.9368c-0.0722-0.20346-0.11122-0.42046-0.10077-0.64492l-1.0118 1.386-0.01447 0.01 0.0036 5e-3 -0.71727 0.98288 2.8696-0.68884c-0.21269-0.0802-0.39914-0.20109-0.56017-0.34727l4.408-2.9368zm-14.861 0.14159 0.16227 4.1181-4.2545 0.16743-0.16226-4.1176z" fill="url(#radialGradient21507)"/>
 </g>
</svg>
