<?xml version="1.0" encoding="UTF-8"?>
<!-- Created with Inkscape (http://www.inkscape.org/) -->
<svg width="11.449mm" height="11.449mm" version="1.1" viewBox="0 0 11.449 11.449" xmlns="http://www.w3.org/2000/svg" xmlns:cc="http://creativecommons.org/ns#" xmlns:dc="http://purl.org/dc/elements/1.1/" xmlns:rdf="http://www.w3.org/1999/02/22-rdf-syntax-ns#" xmlns:xlink="http://www.w3.org/1999/xlink">
 <defs>
  <linearGradient id="linearGradient2812" x1="528.62" x2="569.69" y1="307.85" y2="360.94" gradientTransform="matrix(.26458 0 0 .26458 -95.161 34.022)" gradientUnits="userSpaceOnUse">
   <stop stop-color="#e92f2f" offset="0"/>
   <stop stop-color="#a224ab" offset="1"/>
  </linearGradient>
 </defs>
 <metadata>
  <rdf:RDF>
   <cc:Work rdf:about="">
    <dc:format>image/svg+xml</dc:format>
    <dc:type rdf:resource="http://purl.org/dc/dcmitype/StillImage"/>
    <dc:title/>
   </cc:Work>
  </rdf:RDF>
 </metadata>
 <g transform="translate(-44.217 -117.65)">
  <path d="m49.945 117.65c-3.1552 0-5.7283 2.5731-5.7283 5.7283 0 3.1552 2.5732 5.7211 5.7283 5.7211 3.1552 0 5.7211-2.566 5.7211-5.7211 0-3.1552-2.5659-5.7283-5.7211-5.7283zm0 1.093c2.5655 0 4.6281 2.0699 4.6281 4.6354 0 2.5655-2.0626 4.6287-4.6281 4.6287s-4.6359-2.0631-4.6359-4.6287c0-2.5655 2.0703-4.6354 4.6359-4.6354zm1.9384 2.3797c-0.06282 0-0.12556 0.0264-0.17363 0.0718l-2.5668 2.5668-0.95653-0.95652c-0.11376-0.11377-0.29662-0.11377-0.41031 0l-0.57309 0.57309c-0.11376 0.11376-0.11376 0.29669 0 0.4103l1.1302 1.1302 0.60462 0.60461 0.03137 0.0302c0.09623 0.0964 0.25107 0.0964 0.34726 0l0.03137-0.0302 6e-3 -4e-3 0.56689-0.56689 2.7714-2.772c0.09623-0.0964 0.09623-0.25096 0-0.34733l-0.63614-0.63614c-0.04804-0.048-0.11082-0.0722-0.17363-0.0722z" color="#000000" fill="url(#linearGradient2812)"/>
 </g>
</svg>
